<?xml version="1.0" standalone="no"?>
<!DOCTYPE svg PUBLIC "-//W3C//DTD SVG 20010904//EN"
 "http://www.w3.org/TR/2001/REC-SVG-20010904/DTD/svg10.dtd">
<svg version="1.0" xmlns="http://www.w3.org/2000/svg"
 width="500.000000pt" height="500.000000pt" viewBox="0 0 500.000000 500.000000"
 preserveAspectRatio="xMidYMid meet">
<metadata>
Created by potrace 1.11, written by Peter Selinger 2001-2013
</metadata>
<g transform="translate(0.000000,500.000000) scale(0.100000,-0.100000)"
fill="#000000" stroke="none">
<path d="M2030 4600 c-210 -38 -435 -132 -606 -253 -114 -80 -272 -238 -354
-352 -118 -168 -209 -375 -251 -578 -28 -132 -40 -436 -22 -552 45 -292 194
-587 412 -814 52 -54 181 -165 209 -180 16 -9 21 -26 26 -103 19 -251 106
-510 241 -720 65 -99 173 -227 193 -228 4 -1 30 -21 57 -47 233 -214 518 -346
834 -389 501 -66 1016 133 1340 519 499 594 472 1461 -63 2015 -49 51 -122
117 -162 148 -77 59 -84 73 -84 164 0 106 -42 290 -98 435 -80 203 -183 358
-346 520 -212 210 -460 345 -756 410 -121 27 -438 30 -570 5z"/>
</g>
</svg>
