<svg xmlns="http://www.w3.org/2000/svg" width="27.729" height="27.729" viewBox="0 0 27.729 27.729">
  <g id="instagram" transform="translate(0)">
    <path id="Path_8" data-name="Path 8" d="M20.284,42.8A6.418,6.418,0,1,1,7.871,40.526H0v9.558a6.932,6.932,0,0,0,6.932,6.932H20.8a6.932,6.932,0,0,0,6.932-6.932V40.526H19.861A6.39,6.39,0,0,1,20.284,42.8Z" transform="translate(0 -29.287)" fill="#080a36"/>
    <ellipse id="Ellipse_1" data-name="Ellipse 1" cx="3.852" cy="3.852" rx="3.852" ry="3.852" transform="translate(10.015 9.662)" fill="#080a36"/>
    <path id="Path_9" data-name="Path 9" d="M20.8,0H7.3V7.231H5.782V.105A6.861,6.861,0,0,0,4.267.534v6.7H2.75V1.414A6.914,6.914,0,0,0,0,6.932v2.03H9.34a6.416,6.416,0,0,1,9.053,0h9.336V6.932A6.932,6.932,0,0,0,20.8,0Zm3.1,6.557a.78.78,0,0,1-.78.779H20.777A.779.779,0,0,1,20,6.557V4.22a.78.78,0,0,1,.78-.78h2.337a.78.78,0,0,1,.78.78Z" transform="translate(0 0)" fill="#080a36"/>
  </g>
</svg>
