<svg xmlns="http://www.w3.org/2000/svg" width="32.591" height="31.794" viewBox="0 0 32.591 31.794">
  <path id="github" d="M16.3,0a16.3,16.3,0,0,0-5.155,31.768c.815.143,1.121-.346,1.121-.775,0-.387-.02-1.671-.02-3.036-4.1.754-5.155-1-5.481-1.915a5.928,5.928,0,0,0-1.671-2.3c-.57-.305-1.385-1.059-.02-1.08A3.266,3.266,0,0,1,7.579,24.33a3.485,3.485,0,0,0,4.748,1.345,3.429,3.429,0,0,1,1.039-2.181c-3.627-.407-7.417-1.813-7.417-8.049A6.344,6.344,0,0,1,7.62,11.065a5.858,5.858,0,0,1,.163-4.317s1.365-.428,4.48,1.671a15.368,15.368,0,0,1,8.151,0c3.117-2.118,4.48-1.671,4.48-1.671a5.858,5.858,0,0,1,.163,4.317,6.307,6.307,0,0,1,1.671,4.381c0,6.256-3.811,7.641-7.438,8.049a3.86,3.86,0,0,1,1.1,3.014c0,2.181-.02,3.933-.02,4.48,0,.428.305.938,1.121.775A16.31,16.31,0,0,0,16.3,0Z" transform="translate(0.007)" fill="#080a36" fill-rule="evenodd"/>
</svg>
